<mxfile host="app.diagrams.net" modified="2021-01-13T03:51:10.715Z" agent="5.0 (Macintosh; Intel Mac OS X 10_15_7) AppleWebKit/537.36 (KHTML, like Gecko) Chrome/87.0.4280.88 Safari/537.36" etag="YR2HS7kiDy37ztbUSmYx" version="14.1.9" type="github">
  <diagram id="MWzBGNx7Yn3T9x4-_3xc" name="Page-1">
    <mxGraphModel dx="1426" dy="889" grid="1" gridSize="10" guides="1" tooltips="1" connect="1" arrows="1" fold="1" page="1" pageScale="1" pageWidth="850" pageHeight="1100" math="0" shadow="0">
      <root>
        <mxCell id="0" />
        <mxCell id="1" parent="0" />
        <mxCell id="hFHBZ21D4sruT17vfi3P-1" value="" style="group" vertex="1" connectable="0" parent="1">
          <mxGeometry x="150" y="60" width="1180" height="840" as="geometry" />
        </mxCell>
        <mxCell id="hFHBZ21D4sruT17vfi3P-2" value="Read Transaction" style="shape=umlFrame;whiteSpace=wrap;html=1;rounded=0;shadow=0;comic=0;labelBackgroundColor=none;strokeWidth=1;fontFamily=Verdana;fontSize=10;align=center;width=80;height=30;" vertex="1" parent="hFHBZ21D4sruT17vfi3P-1">
          <mxGeometry y="50" width="1180" height="820" as="geometry" />
        </mxCell>
        <mxCell id="hFHBZ21D4sruT17vfi3P-3" value="UI" style="html=1;" vertex="1" parent="hFHBZ21D4sruT17vfi3P-1">
          <mxGeometry x="270" y="130" width="110" height="50" as="geometry" />
        </mxCell>
        <mxCell id="hFHBZ21D4sruT17vfi3P-4" value="Account" style="html=1;" vertex="1" parent="hFHBZ21D4sruT17vfi3P-1">
          <mxGeometry x="490" y="130" width="110" height="50" as="geometry" />
        </mxCell>
        <mxCell id="hFHBZ21D4sruT17vfi3P-5" value="DBOperator" style="html=1;" vertex="1" parent="hFHBZ21D4sruT17vfi3P-1">
          <mxGeometry x="930" y="130" width="110" height="50" as="geometry" />
        </mxCell>
        <mxCell id="hFHBZ21D4sruT17vfi3P-6" value="" style="html=1;points=[];perimeter=orthogonalPerimeter;" vertex="1" parent="hFHBZ21D4sruT17vfi3P-1">
          <mxGeometry x="320" y="270" width="10" height="570" as="geometry" />
        </mxCell>
        <mxCell id="hFHBZ21D4sruT17vfi3P-7" value="" style="shape=umlLifeline;participant=umlActor;perimeter=lifelinePerimeter;whiteSpace=wrap;html=1;container=1;collapsible=0;recursiveResize=0;verticalAlign=top;spacingTop=36;outlineConnect=0;" vertex="1" parent="hFHBZ21D4sruT17vfi3P-1">
          <mxGeometry x="110" y="140" width="20" height="700" as="geometry" />
        </mxCell>
        <mxCell id="hFHBZ21D4sruT17vfi3P-8" value="select Account" style="html=1;verticalAlign=bottom;endArrow=block;" edge="1" parent="hFHBZ21D4sruT17vfi3P-1">
          <mxGeometry width="80" relative="1" as="geometry">
            <mxPoint x="130" y="269.99999999999994" as="sourcePoint" />
            <mxPoint x="320" y="270.34" as="targetPoint" />
          </mxGeometry>
        </mxCell>
        <mxCell id="hFHBZ21D4sruT17vfi3P-9" value="" style="html=1;points=[];perimeter=orthogonalPerimeter;" vertex="1" parent="hFHBZ21D4sruT17vfi3P-1">
          <mxGeometry x="540" y="300" width="10" height="80" as="geometry" />
        </mxCell>
        <mxCell id="hFHBZ21D4sruT17vfi3P-10" value="" style="html=1;points=[];perimeter=orthogonalPerimeter;" vertex="1" parent="hFHBZ21D4sruT17vfi3P-1">
          <mxGeometry x="980" y="450" width="10" height="80" as="geometry" />
        </mxCell>
        <mxCell id="hFHBZ21D4sruT17vfi3P-11" value="" style="endArrow=classic;html=1;" edge="1" parent="hFHBZ21D4sruT17vfi3P-1">
          <mxGeometry relative="1" as="geometry">
            <mxPoint x="810" y="480.0000000000001" as="sourcePoint" />
            <mxPoint x="950" y="480.0000000000001" as="targetPoint" />
          </mxGeometry>
        </mxCell>
        <mxCell id="hFHBZ21D4sruT17vfi3P-12" value="query()" style="edgeLabel;resizable=0;html=1;align=center;verticalAlign=middle;" connectable="0" vertex="1" parent="hFHBZ21D4sruT17vfi3P-11">
          <mxGeometry relative="1" as="geometry">
            <mxPoint y="-9.66" as="offset" />
          </mxGeometry>
        </mxCell>
        <mxCell id="hFHBZ21D4sruT17vfi3P-13" value="" style="endArrow=none;html=1;startArrow=classic;startFill=1;endFill=0;" edge="1" parent="hFHBZ21D4sruT17vfi3P-1">
          <mxGeometry relative="1" as="geometry">
            <mxPoint x="810" y="490" as="sourcePoint" />
            <mxPoint x="950" y="490" as="targetPoint" />
          </mxGeometry>
        </mxCell>
        <mxCell id="hFHBZ21D4sruT17vfi3P-14" value="success: TransactionList" style="edgeLabel;resizable=0;html=1;align=center;verticalAlign=middle;" connectable="0" vertex="1" parent="hFHBZ21D4sruT17vfi3P-13">
          <mxGeometry relative="1" as="geometry">
            <mxPoint y="10" as="offset" />
          </mxGeometry>
        </mxCell>
        <mxCell id="hFHBZ21D4sruT17vfi3P-15" value="" style="endArrow=none;dashed=1;html=1;dashPattern=1 3;strokeWidth=2;entryX=0.5;entryY=1;entryDx=0;entryDy=0;" edge="1" parent="hFHBZ21D4sruT17vfi3P-1" target="hFHBZ21D4sruT17vfi3P-3">
          <mxGeometry width="50" height="50" relative="1" as="geometry">
            <mxPoint x="325" y="270" as="sourcePoint" />
            <mxPoint x="640" y="220" as="targetPoint" />
          </mxGeometry>
        </mxCell>
        <mxCell id="hFHBZ21D4sruT17vfi3P-16" value="" style="endArrow=none;dashed=1;html=1;dashPattern=1 3;strokeWidth=2;entryX=0.5;entryY=1;entryDx=0;entryDy=0;exitX=0.467;exitY=-0.004;exitDx=0;exitDy=0;exitPerimeter=0;" edge="1" parent="hFHBZ21D4sruT17vfi3P-1" source="hFHBZ21D4sruT17vfi3P-9">
          <mxGeometry width="50" height="50" relative="1" as="geometry">
            <mxPoint x="544.88" y="270" as="sourcePoint" />
            <mxPoint x="544.88" y="180" as="targetPoint" />
          </mxGeometry>
        </mxCell>
        <mxCell id="hFHBZ21D4sruT17vfi3P-17" value="" style="endArrow=none;dashed=1;html=1;dashPattern=1 3;strokeWidth=2;entryX=0.5;entryY=1;entryDx=0;entryDy=0;" edge="1" parent="hFHBZ21D4sruT17vfi3P-1" source="hFHBZ21D4sruT17vfi3P-10">
          <mxGeometry width="50" height="50" relative="1" as="geometry">
            <mxPoint x="985" y="400" as="sourcePoint" />
            <mxPoint x="984.7100000000003" y="180" as="targetPoint" />
          </mxGeometry>
        </mxCell>
        <mxCell id="hFHBZ21D4sruT17vfi3P-18" value="" style="group" vertex="1" connectable="0" parent="hFHBZ21D4sruT17vfi3P-1">
          <mxGeometry x="710" y="130" width="110" height="220" as="geometry" />
        </mxCell>
        <mxCell id="hFHBZ21D4sruT17vfi3P-19" value="Service" style="html=1;" vertex="1" parent="hFHBZ21D4sruT17vfi3P-18">
          <mxGeometry width="110" height="50" as="geometry" />
        </mxCell>
        <mxCell id="hFHBZ21D4sruT17vfi3P-20" value="" style="endArrow=none;dashed=1;html=1;dashPattern=1 3;strokeWidth=2;entryX=0.5;entryY=1;entryDx=0;entryDy=0;" edge="1" parent="hFHBZ21D4sruT17vfi3P-18" source="hFHBZ21D4sruT17vfi3P-26">
          <mxGeometry width="50" height="50" relative="1" as="geometry">
            <mxPoint x="54.879999999999995" y="140" as="sourcePoint" />
            <mxPoint x="54.879999999999995" y="50" as="targetPoint" />
          </mxGeometry>
        </mxCell>
        <mxCell id="hFHBZ21D4sruT17vfi3P-21" value="getCurrencyList()" style="html=1;verticalAlign=bottom;endArrow=block;" edge="1" parent="hFHBZ21D4sruT17vfi3P-1">
          <mxGeometry width="80" relative="1" as="geometry">
            <mxPoint x="340" y="329.99999999999994" as="sourcePoint" />
            <mxPoint x="530" y="330.34" as="targetPoint" />
          </mxGeometry>
        </mxCell>
        <mxCell id="hFHBZ21D4sruT17vfi3P-22" value="success: CurrencyList" style="html=1;verticalAlign=bottom;endArrow=none;endFill=0;startArrow=classic;startFill=1;" edge="1" parent="hFHBZ21D4sruT17vfi3P-1">
          <mxGeometry x="-0.0523" y="-20" width="80" relative="1" as="geometry">
            <mxPoint x="340" y="339.99999999999994" as="sourcePoint" />
            <mxPoint x="530" y="340.34" as="targetPoint" />
            <mxPoint as="offset" />
          </mxGeometry>
        </mxCell>
        <mxCell id="hFHBZ21D4sruT17vfi3P-23" value="getTransactions()" style="html=1;verticalAlign=bottom;endArrow=block;" edge="1" parent="hFHBZ21D4sruT17vfi3P-1">
          <mxGeometry x="-0.0528" y="10" width="80" relative="1" as="geometry">
            <mxPoint x="560" y="470" as="sourcePoint" />
            <mxPoint x="750" y="470.3399999999999" as="targetPoint" />
            <mxPoint as="offset" />
          </mxGeometry>
        </mxCell>
        <mxCell id="hFHBZ21D4sruT17vfi3P-24" value="success: TransactionList" style="html=1;verticalAlign=bottom;endArrow=none;endFill=0;startArrow=classic;startFill=1;" edge="1" parent="hFHBZ21D4sruT17vfi3P-1">
          <mxGeometry x="-0.0522" y="-25" width="80" relative="1" as="geometry">
            <mxPoint x="340" y="520" as="sourcePoint" />
            <mxPoint x="530" y="520.34" as="targetPoint" />
            <mxPoint as="offset" />
          </mxGeometry>
        </mxCell>
        <mxCell id="hFHBZ21D4sruT17vfi3P-25" value="" style="html=1;points=[];perimeter=orthogonalPerimeter;" vertex="1" parent="hFHBZ21D4sruT17vfi3P-1">
          <mxGeometry x="540" y="430" width="10" height="120" as="geometry" />
        </mxCell>
        <mxCell id="hFHBZ21D4sruT17vfi3P-26" value="" style="html=1;points=[];perimeter=orthogonalPerimeter;" vertex="1" parent="hFHBZ21D4sruT17vfi3P-1">
          <mxGeometry x="760" y="435" width="10" height="110" as="geometry" />
        </mxCell>
        <mxCell id="hFHBZ21D4sruT17vfi3P-27" value="getTransactions()" style="html=1;verticalAlign=bottom;endArrow=block;" edge="1" parent="hFHBZ21D4sruT17vfi3P-1">
          <mxGeometry x="-0.0528" y="10" width="80" relative="1" as="geometry">
            <mxPoint x="340" y="448.5699999999999" as="sourcePoint" />
            <mxPoint x="530" y="448.91" as="targetPoint" />
            <mxPoint as="offset" />
          </mxGeometry>
        </mxCell>
        <mxCell id="hFHBZ21D4sruT17vfi3P-28" value="" style="endArrow=none;html=1;startArrow=classic;startFill=1;endFill=0;" edge="1" parent="hFHBZ21D4sruT17vfi3P-1">
          <mxGeometry relative="1" as="geometry">
            <mxPoint x="570" y="500" as="sourcePoint" />
            <mxPoint x="740" y="500" as="targetPoint" />
          </mxGeometry>
        </mxCell>
        <mxCell id="hFHBZ21D4sruT17vfi3P-29" value="success: TransactionList" style="edgeLabel;resizable=0;html=1;align=center;verticalAlign=middle;" connectable="0" vertex="1" parent="hFHBZ21D4sruT17vfi3P-28">
          <mxGeometry relative="1" as="geometry">
            <mxPoint y="10" as="offset" />
          </mxGeometry>
        </mxCell>
        <mxCell id="hFHBZ21D4sruT17vfi3P-30" value="&lt;span style=&quot;font-family: &amp;#34;helvetica&amp;#34; ; text-align: center&quot;&gt;Navigate to&amp;nbsp;&lt;/span&gt;&lt;span style=&quot;text-align: center&quot;&gt;TransactionList&lt;/span&gt;&lt;span style=&quot;font-family: &amp;#34;helvetica&amp;#34; ; text-align: center&quot;&gt;&amp;nbsp;Page&lt;/span&gt;" style="edgeStyle=orthogonalEdgeStyle;html=1;align=left;spacingLeft=2;endArrow=block;rounded=0;entryX=1;entryY=0;" edge="1" parent="hFHBZ21D4sruT17vfi3P-1">
          <mxGeometry relative="1" as="geometry">
            <mxPoint x="330" y="570" as="sourcePoint" />
            <Array as="points">
              <mxPoint x="355" y="570" />
            </Array>
            <mxPoint x="335" y="590" as="targetPoint" />
          </mxGeometry>
        </mxCell>
        <mxCell id="hFHBZ21D4sruT17vfi3P-31" value="&lt;span style=&quot;font-family: &amp;#34;helvetica&amp;#34; ; text-align: center&quot;&gt;Navigate to&amp;nbsp;&lt;/span&gt;&lt;span style=&quot;text-align: center&quot;&gt;CurrencyList&lt;/span&gt;&lt;span style=&quot;font-family: &amp;#34;helvetica&amp;#34; ; text-align: center&quot;&gt;&amp;nbsp;Page&lt;/span&gt;" style="edgeStyle=orthogonalEdgeStyle;html=1;align=left;spacingLeft=2;endArrow=block;rounded=0;entryX=1;entryY=0;" edge="1" parent="hFHBZ21D4sruT17vfi3P-1">
          <mxGeometry relative="1" as="geometry">
            <mxPoint x="330" y="380" as="sourcePoint" />
            <Array as="points">
              <mxPoint x="355" y="380" />
            </Array>
            <mxPoint x="335" y="400" as="targetPoint" />
          </mxGeometry>
        </mxCell>
        <mxCell id="hFHBZ21D4sruT17vfi3P-32" value="select Transaction" style="html=1;verticalAlign=bottom;endArrow=block;" edge="1" parent="hFHBZ21D4sruT17vfi3P-1">
          <mxGeometry width="80" relative="1" as="geometry">
            <mxPoint x="130" y="620" as="sourcePoint" />
            <mxPoint x="320" y="620.3399999999999" as="targetPoint" />
          </mxGeometry>
        </mxCell>
        <mxCell id="hFHBZ21D4sruT17vfi3P-33" value="&lt;span style=&quot;font-family: &amp;#34;helvetica&amp;#34; ; text-align: center&quot;&gt;Navigate to&amp;nbsp;&lt;/span&gt;&lt;span style=&quot;text-align: center&quot;&gt;TransactionDetail&lt;/span&gt;&lt;span style=&quot;font-family: &amp;#34;helvetica&amp;#34; ; text-align: center&quot;&gt;&amp;nbsp;Page&lt;/span&gt;" style="edgeStyle=orthogonalEdgeStyle;html=1;align=left;spacingLeft=2;endArrow=block;rounded=0;entryX=1;entryY=0;" edge="1" parent="hFHBZ21D4sruT17vfi3P-1">
          <mxGeometry relative="1" as="geometry">
            <mxPoint x="330" y="730" as="sourcePoint" />
            <Array as="points">
              <mxPoint x="355" y="730" />
            </Array>
            <mxPoint x="335" y="750" as="targetPoint" />
          </mxGeometry>
        </mxCell>
        <mxCell id="hFHBZ21D4sruT17vfi3P-34" value="toggle txid text" style="html=1;verticalAlign=bottom;endArrow=block;" edge="1" parent="hFHBZ21D4sruT17vfi3P-1">
          <mxGeometry x="-0.0528" y="10" width="80" relative="1" as="geometry">
            <mxPoint x="130" y="790" as="sourcePoint" />
            <mxPoint x="320" y="790.3399999999999" as="targetPoint" />
            <mxPoint as="offset" />
          </mxGeometry>
        </mxCell>
        <mxCell id="hFHBZ21D4sruT17vfi3P-35" value="&lt;span style=&quot;font-family: &amp;#34;helvetica&amp;#34; ; text-align: center&quot;&gt;Navigate to&amp;nbsp;&lt;/span&gt;&lt;span style=&quot;text-align: center&quot;&gt;Explorer&lt;/span&gt;&lt;span style=&quot;font-family: &amp;#34;helvetica&amp;#34; ; text-align: center&quot;&gt;&amp;nbsp;Page&lt;/span&gt;" style="edgeStyle=orthogonalEdgeStyle;html=1;align=left;spacingLeft=2;endArrow=block;rounded=0;entryX=1;entryY=0;" edge="1" parent="hFHBZ21D4sruT17vfi3P-1">
          <mxGeometry relative="1" as="geometry">
            <mxPoint x="330" y="810" as="sourcePoint" />
            <Array as="points">
              <mxPoint x="355" y="810" />
            </Array>
            <mxPoint x="335" y="830" as="targetPoint" />
          </mxGeometry>
        </mxCell>
        <mxCell id="hFHBZ21D4sruT17vfi3P-36" value="select Currency" style="html=1;verticalAlign=bottom;endArrow=block;" edge="1" parent="hFHBZ21D4sruT17vfi3P-1">
          <mxGeometry width="80" relative="1" as="geometry">
            <mxPoint x="120" y="430" as="sourcePoint" />
            <mxPoint x="310" y="430.34000000000003" as="targetPoint" />
          </mxGeometry>
        </mxCell>
        <mxCell id="hFHBZ21D4sruT17vfi3P-37" value="if user slide view" style="ellipse;shape=doubleEllipse;whiteSpace=wrap;html=1;aspect=fixed;" vertex="1" parent="hFHBZ21D4sruT17vfi3P-1">
          <mxGeometry x="960" y="710" width="80" height="80" as="geometry" />
        </mxCell>
        <mxCell id="hFHBZ21D4sruT17vfi3P-38" value="transaction list 的 transaction detail 是否要完整" style="ellipse;shape=doubleEllipse;whiteSpace=wrap;html=1;aspect=fixed;" vertex="1" parent="hFHBZ21D4sruT17vfi3P-1">
          <mxGeometry x="1060" y="710" width="80" height="80" as="geometry" />
        </mxCell>
        <mxCell id="hFHBZ21D4sruT17vfi3P-39" value="" style="endArrow=none;dashed=1;html=1;dashPattern=1 3;strokeWidth=2;entryX=0.493;entryY=1.018;entryDx=0;entryDy=0;exitX=0.493;exitY=0.003;exitDx=0;exitDy=0;exitPerimeter=0;entryPerimeter=0;" edge="1" parent="hFHBZ21D4sruT17vfi3P-1" source="hFHBZ21D4sruT17vfi3P-25" target="hFHBZ21D4sruT17vfi3P-9">
          <mxGeometry width="50" height="50" relative="1" as="geometry">
            <mxPoint x="554.6699999999998" y="309.68000000000006" as="sourcePoint" />
            <mxPoint x="554.8800000000001" y="190.00000000000023" as="targetPoint" />
          </mxGeometry>
        </mxCell>
        <mxCell id="hFHBZ21D4sruT17vfi3P-40" value="" style="endArrow=none;dashed=1;html=1;dashPattern=1 3;strokeWidth=2;entryX=0.493;entryY=1.018;entryDx=0;entryDy=0;entryPerimeter=0;" edge="1" parent="hFHBZ21D4sruT17vfi3P-1" source="hFHBZ21D4sruT17vfi3P-41">
          <mxGeometry width="50" height="50" relative="1" as="geometry">
            <mxPoint x="544.7600000000001" y="598.9199999999998" as="sourcePoint" />
            <mxPoint x="544.7600000000001" y="549.9999999999998" as="targetPoint" />
          </mxGeometry>
        </mxCell>
        <mxCell id="hFHBZ21D4sruT17vfi3P-41" value="" style="html=1;points=[];perimeter=orthogonalPerimeter;" vertex="1" parent="hFHBZ21D4sruT17vfi3P-1">
          <mxGeometry x="540" y="600" width="10" height="120" as="geometry" />
        </mxCell>
        <mxCell id="hFHBZ21D4sruT17vfi3P-42" value="getTransaction()" style="html=1;verticalAlign=bottom;endArrow=block;" edge="1" parent="hFHBZ21D4sruT17vfi3P-1">
          <mxGeometry x="-0.0528" y="10" width="80" relative="1" as="geometry">
            <mxPoint x="340" y="639.76" as="sourcePoint" />
            <mxPoint x="530" y="640.1000000000001" as="targetPoint" />
            <mxPoint as="offset" />
          </mxGeometry>
        </mxCell>
        <mxCell id="hFHBZ21D4sruT17vfi3P-43" value="success: Transaction" style="html=1;verticalAlign=bottom;endArrow=none;endFill=0;startArrow=classic;startFill=1;" edge="1" parent="hFHBZ21D4sruT17vfi3P-1">
          <mxGeometry x="-0.0522" y="-25" width="80" relative="1" as="geometry">
            <mxPoint x="340" y="690" as="sourcePoint" />
            <mxPoint x="530" y="690.3400000000001" as="targetPoint" />
            <mxPoint as="offset" />
          </mxGeometry>
        </mxCell>
        <mxCell id="hFHBZ21D4sruT17vfi3P-44" value="getTransaction()" style="html=1;verticalAlign=bottom;endArrow=block;" edge="1" parent="hFHBZ21D4sruT17vfi3P-1">
          <mxGeometry x="-0.0528" y="10" width="80" relative="1" as="geometry">
            <mxPoint x="560" y="659.76" as="sourcePoint" />
            <mxPoint x="750" y="660.0999999999999" as="targetPoint" />
            <mxPoint as="offset" />
          </mxGeometry>
        </mxCell>
        <mxCell id="hFHBZ21D4sruT17vfi3P-45" value="success: Transaction" style="html=1;verticalAlign=bottom;endArrow=none;endFill=0;startArrow=classic;startFill=1;" edge="1" parent="hFHBZ21D4sruT17vfi3P-1">
          <mxGeometry x="-0.0522" y="-25" width="80" relative="1" as="geometry">
            <mxPoint x="560" y="670" as="sourcePoint" />
            <mxPoint x="750" y="670.3400000000001" as="targetPoint" />
            <mxPoint as="offset" />
          </mxGeometry>
        </mxCell>
        <mxCell id="hFHBZ21D4sruT17vfi3P-46" value="" style="html=1;points=[];perimeter=orthogonalPerimeter;" vertex="1" parent="hFHBZ21D4sruT17vfi3P-1">
          <mxGeometry x="760" y="600" width="10" height="110" as="geometry" />
        </mxCell>
        <mxCell id="hFHBZ21D4sruT17vfi3P-47" value="" style="endArrow=none;dashed=1;html=1;dashPattern=1 3;strokeWidth=2;exitX=0.481;exitY=-0.009;exitDx=0;exitDy=0;exitPerimeter=0;" edge="1" parent="hFHBZ21D4sruT17vfi3P-1" source="hFHBZ21D4sruT17vfi3P-46" target="hFHBZ21D4sruT17vfi3P-26">
          <mxGeometry width="50" height="50" relative="1" as="geometry">
            <mxPoint x="764.7600000000002" y="595" as="sourcePoint" />
            <mxPoint x="764.7600000000002" y="544.9999999999998" as="targetPoint" />
          </mxGeometry>
        </mxCell>
      </root>
    </mxGraphModel>
  </diagram>
</mxfile>
